<svg width="162" height="32" xmlns="http://www.w3.org/2000/svg" viewBox="0 0 336.71 66.65"><defs><style>.cls-1{fill:#009544;}.cls-2{fill:#1d1d1b;}.cls-3{fill:#2b2b2b;}.cls-4{fill:#010101;}</style></defs><g id="Warstwa_2" data-name="Warstwa 2"><g id="Warstwa_1-2" data-name="Warstwa 1"><path class="cls-1" d="M92.08,21.08l-.48-2a1,1,0,0,0-1-.76h-5a1,1,0,0,0-1,1V49.63a1,1,0,0,0,1,1H91.8a1,1,0,0,0,1-1V32.05a6.67,6.67,0,0,1,6.67-6.67h0a5.71,5.71,0,0,1,5.71,5.71V49.63a1,1,0,0,0,1,1h6.13a1,1,0,0,0,1-1V32.15a6.77,6.77,0,0,1,6.76-6.77h0a5.72,5.72,0,0,1,5.72,5.71V49.63a1,1,0,0,0,1,1H133a1,1,0,0,0,1-1V29.34A11.74,11.74,0,0,0,122.21,17.6a13.55,13.55,0,0,0-11,5.14,10.56,10.56,0,0,0-9.29-5.11C95.12,17.63,92.08,21.08,92.08,21.08Z"/><rect class="cls-1" x="190.42" y="20.05" width="8.29" height="30.6" rx="1"/><path class="cls-1" d="M22.68,30.61a9.39,9.39,0,0,0,4.7-8.86,9.58,9.58,0,0,0-9.66-8.69H1a1,1,0,0,0-1,1V49.6a1,1,0,0,0,1,1H18.63a10.57,10.57,0,0,0,10.64-9.45A10.35,10.35,0,0,0,22.68,30.61ZM8.61,20.54h6.5a3.72,3.72,0,0,1,0,7.44H8.61Zm7.46,22.84H8.61v-9h7.46a4.52,4.52,0,0,1,0,9Z"/><path class="cls-1" d="M270.84,17.82A16.82,16.82,0,1,0,287.9,34.64,16.94,16.94,0,0,0,270.84,17.82Zm0,25.77a9,9,0,1,1,8.82-9A8.89,8.89,0,0,1,270.84,43.59Z"/><path class="cls-1" d="M313.86,17.82a16.82,16.82,0,1,0,17.06,16.82A16.94,16.94,0,0,0,313.86,17.82Zm0,25.77a9,9,0,1,1,8.82-9A8.89,8.89,0,0,1,313.86,43.59Z"/><path class="cls-1" d="M163.17,17.82a13.22,13.22,0,0,0-8.54,3V9.78a1,1,0,0,0-1-1h-6.22a1,1,0,0,0-1,1V49.64a1,1,0,0,0,1,1h5a1,1,0,0,0,1-.78l.48-2.2a13.27,13.27,0,0,0,9.29,3.68c8.63,0,16.13-7.5,16.13-16.76S171.8,17.82,163.17,17.82Zm-.56,25.66a8.71,8.71,0,0,1-8.5-8.9,8.51,8.51,0,1,1,17,0A8.7,8.7,0,0,1,162.61,43.48Z"/><path class="cls-1" d="M228.73,17.82a13.27,13.27,0,0,0-8.55,3V9.78a1,1,0,0,0-1-1H213a1,1,0,0,0-1,1V49.64a1,1,0,0,0,1,1h5a1,1,0,0,0,1-.78l.49-2.2a13.23,13.23,0,0,0,9.29,3.68c8.62,0,16.12-7.5,16.12-16.76S237.35,17.82,228.73,17.82Zm-.56,25.66a8.7,8.7,0,0,1-8.5-8.9,8.51,8.51,0,1,1,17,0A8.71,8.71,0,0,1,228.17,43.48Z"/><path class="cls-1" d="M64.35,19.14l-.49,2.36a13.23,13.23,0,0,0-9.29-3.68c-8.62,0-16.12,7.5-16.12,16.76S46,51.34,54.57,51.34a13.23,13.23,0,0,0,9.29-3.68l.49,2.2a1,1,0,0,0,1,.78h5a1,1,0,0,0,1-1V19.35a1,1,0,0,0-1-1h-5A1,1,0,0,0,64.35,19.14ZM55.13,43.48a8.71,8.71,0,0,1-8.5-8.9,8.51,8.51,0,1,1,17,0A8.7,8.7,0,0,1,55.13,43.48Z"/><circle class="cls-1" cx="194.56" cy="10.29" r="5.51"/><path class="cls-2" d="M251.38,20.11c4.23-5.3,10-9.06,19.1-9.33a1,1,0,0,0,.87-1.4C268.19,2.14,260.49-1.69,254.71.72s-8.89,10.55-5,19.18A1,1,0,0,0,251.38,20.11Z"/><path class="cls-3" d="M251.38,20.11c4.23-5.3,10-9.06,19.1-9.33a1,1,0,0,0,.87-1.4C268.19,2.14,260.49-1.69,254.71.72s-8.89,10.55-5,19.18A1,1,0,0,0,251.38,20.11Z"/><ellipse class="cls-4" cx="313.86" cy="34.79" rx="4.89" ry="3.12" transform="translate(161.22 311.22) rotate(-67.42)"/><ellipse class="cls-4" cx="270.84" cy="34.79" rx="3.12" ry="4.89" transform="translate(7.41 106.67) rotate(-22.58)"/><path class="cls-3" d="M303.64,58c0,4.06-5.05,8.68-11.28,8.68S281.08,62,281.08,58,303.64,53.92,303.64,58Z"/><path class="cls-3" d="M328.19,7.71a1.62,1.62,0,0,0,.87-1.54,1.65,1.65,0,0,0-1.67-1.53H325.6a.23.23,0,0,0-.23.23V9.22a.23.23,0,0,0,.23.23h.68a.23.23,0,0,0,.23-.23V7.91H327l.91,1.44a.23.23,0,0,0,.19.1h.74a.23.23,0,0,0,.2-.35Zm-.89-.77h-.79V5.73h.79a.61.61,0,1,1,0,1.21Z"/><path class="cls-3" d="M330,.72c-5.77-2.41-13.48,1.42-16.64,8.66a1,1,0,0,0,.87,1.4c9.12.27,14.87,4,19.1,9.33A1,1,0,0,0,335,19.9C338.86,11.27,335.78,3.13,330,.72Zm-2.91,10.59a4.18,4.18,0,1,1,4.18-4.18A4.18,4.18,0,0,1,327.06,11.31Z"/></g></g></svg>
